<svg width="200" height="217" viewBox="0 0 200 217" fill="none" xmlns="http://www.w3.org/2000/svg">
<g id="Group 7">
<path id="path18" d="M33.3004 39.9129C29.5729 39.581 35.8845 24.8434 39.7877 18.4576C48.0209 4.98491 60.3507 14.8863 53.2603 21.1844C37.7918 34.9233 35.0472 40.0693 33.3004 39.9129Z" fill="#7A1FA0"/>
<path id="path288" d="M96.0342 15.3118C98.7039 13.6414 99.0608 21.2293 97.6617 22.0003C96.2698 22.7712 93.3646 16.9821 96.0342 15.3118Z" fill="#7A351D"/>
<path id="path290" d="M104.657 16.3468C107.569 16.8608 102.737 23.6778 100.581 23.2923C99.6029 23.1139 101.737 15.8258 104.657 16.3468Z" fill="#7A351D"/>
<path id="path292" d="M44.6602 68.2845L44.7388 68.5986C44.7388 68.5986 47.4013 83.1891 46.3806 85.2449C45.3669 87.3007 42.7615 91.191 46.5733 100.828C48.2222 105.003 52.4409 109.336 58.694 112.512C55.1463 110.871 48.1294 107.859 46.9802 109.087C46.7375 109.351 46.2449 110.029 45.5811 111.035L45.1171 110.843C39.2423 106.952 33.5246 101.741 29.4202 97.6797V97.6718C29.3773 97.0729 27.5285 69.6193 31.583 53.8367C35.6875 37.8828 68.7089 21.0873 79.3663 19.3734C90.0237 17.6674 98.1112 27.9678 98.1112 27.9678C98.1112 27.9678 110.303 22.657 116.549 28.6602C121.125 33.0645 130.761 49.2826 138.635 62.2955C140.398 65.2222 142.083 67.9847 143.596 70.4117C144.531 71.9178 145.402 73.2884 146.186 74.4948C153.939 86.3371 157.993 87.8932 157.987 89.4358C157.987 90.9769 153.821 97.5797 150.645 98.7361C150.645 98.7361 146.687 93.4539 146.18 93.4539C145.673 93.4539 151.477 101.425 151.477 102.71C151.469 104.003 139.956 110.908 134.817 111.949C133.546 112.207 132.089 102.234 130.319 100.15C130.39 100.571 133.019 110.296 132.349 113.18C131.664 116.143 116.873 116.891 114.718 115.921C113.583 115.407 115.971 104.686 117.092 98.7361C122.388 90.3345 123.844 82.204 123.844 82.204C123.844 82.204 131.297 80.4266 131.318 71.2254C131.34 63.1593 124.415 57.8413 118.484 64.3513C100.867 58.6408 98.354 42.2443 98.1041 40.1885C98.2326 41.6946 98.9821 50.5746 98.0541 51.9879C97.0334 53.5298 81.6362 56.7848 79.9445 56.5992C78.252 56.4136 75.2404 45.2852 75.0691 46.4837C74.8906 47.6836 75.376 57.6343 75.0334 58.563C74.6907 59.4902 61.4922 62.7738 59.9717 62.6025C58.4513 62.4312 57.2878 54.365 56.6096 55.0495C55.9315 55.7355 54.5538 64.3156 53.5402 65.3435C52.9905 65.8932 48.6505 67.2352 44.6602 68.2845ZM98.1041 40.167C98.0898 40.0386 98.0827 39.9743 98.0827 39.9743C98.0827 39.9743 98.0898 40.0457 98.1041 40.167Z" fill="#7A351D"/>
<path id="path294" d="M33.1605 136.861C34.7737 128.895 42.276 116.018 45.581 111.035C46.2448 110.029 46.7374 109.351 46.9801 109.087C48.1293 107.859 55.1462 110.871 58.6939 112.512C59.3221 112.841 59.9716 113.148 60.6355 113.434C60.7062 113.462 60.7426 113.484 60.7426 113.484C67.324 116.382 75.8256 118.009 85.7121 117.123L85.7478 117.538C85.7478 117.538 91.7082 125.64 98.5894 122.499C106.67 118.816 104.7 111.514 104.7 111.514L104.635 111.406C110.189 107.952 114.208 103.305 117.092 98.7361C118.377 104.504 116.071 113.976 117.206 114.49C119.362 115.461 130.526 114.554 131.211 111.591C131.882 108.708 130.39 100.571 130.319 100.149C132.089 102.234 133.959 110.179 135.23 109.922C140.369 108.88 150.341 103.112 150.349 101.82C150.349 100.535 145.673 93.4538 146.18 93.4538C146.687 93.4538 149.849 97.4441 149.849 97.4441C153.025 96.2877 157.987 90.9769 157.987 89.4357C157.993 87.8932 153.939 86.337 146.186 74.4947C145.402 73.2884 144.531 71.9178 143.596 70.4117C148.835 72.8244 156.594 78.0496 161.506 82.1969C163.818 84.1456 165.496 85.8588 165.988 86.9152C167.552 90.3059 149.149 129.159 149.149 129.159L177.186 191.487C177.186 191.487 166.801 206.589 123.544 215.305C97.0968 220.631 66.4032 207.672 66.4032 207.672C62.3701 194.074 61.6555 155.606 61.6555 155.606C53.1118 152.851 32.6109 142.294 32.875 138.803C32.9178 138.196 33.0177 137.547 33.1605 136.861Z" fill="#FFC000"/>
<path id="path296" d="M104.7 111.514C104.7 111.514 106.67 118.816 98.5894 122.499C91.7082 125.64 85.7478 117.538 85.7478 117.538L85.7121 117.123C87.9035 116.931 90.1592 116.617 92.4713 116.161C97.1761 115.24 101.202 113.555 104.636 111.406L104.7 111.514Z" fill="#FABAAD"/>
<path id="path298" d="M80.3821 117.365C80.3799 117.365 80.3778 117.365 80.3756 117.365C80.3778 117.365 80.3799 117.365 80.3821 117.365ZM80.3835 117.365C81.6255 117.365 82.8926 117.325 84.1853 117.241C84.2974 117.234 84.4101 117.227 84.5229 117.218C83.1131 117.318 81.7333 117.365 80.3835 117.365ZM84.5979 117.213C84.6008 117.213 84.6029 117.213 84.6057 117.213C84.6029 117.213 84.6008 117.213 84.5979 117.213Z" fill="#EFDDED"/>
<path id="path300" d="M83.9605 119.229C77.1485 119.229 70.2401 117.721 64.1148 114.795C68.8053 116.393 74.2746 117.365 80.3757 117.365C80.3778 117.365 80.38 117.365 80.3821 117.365C80.3821 117.365 80.3828 117.365 80.3835 117.365C81.7334 117.365 83.1132 117.318 84.523 117.218C84.548 117.217 84.573 117.216 84.5979 117.213C84.6008 117.213 84.6029 117.213 84.6058 117.213C84.9727 117.187 85.341 117.157 85.7122 117.123L85.7479 117.538C85.7479 117.538 86.2518 118.223 87.1363 119.119C86.0827 119.192 85.0227 119.229 83.9605 119.229Z" fill="#FFC000"/>
<path id="path302" d="M104.91 113.635C104.911 113.585 104.912 113.535 104.912 113.487C104.912 112.3 104.7 111.514 104.7 111.514L104.636 111.406C110.189 107.952 114.208 103.305 117.092 98.7361C117.123 98.8774 117.151 99.0223 117.178 99.1672C114.596 105.541 110.244 110.333 104.91 113.635Z" fill="#FFC000"/>
<path id="path304" d="M87.1362 119.119C86.2517 118.223 85.7478 117.538 85.7478 117.538L85.7121 117.123C87.9035 116.931 90.1592 116.617 92.4713 116.161C97.1761 115.24 101.202 113.555 104.636 111.406L104.7 111.514C104.7 111.514 104.912 112.3 104.912 113.487C104.912 113.535 104.911 113.585 104.91 113.635C104.91 113.635 104.91 113.635 104.91 113.636C99.6837 116.871 93.5149 118.672 87.1376 119.118C87.1369 119.118 87.1369 119.118 87.1362 119.119Z" fill="#F4A09B"/>
<path id="path306" d="M6.94903 92.376C6.67778 92.0119 1.67387 85.3805 3.18717 83.2034C4.73617 80.962 11.439 89.0282 11.439 89.0282C11.439 89.0282 7.11318 82.411 8.63362 80.4123C10.1469 78.4065 17.4922 88.3429 17.4922 88.3429C17.4922 88.3429 17.9561 83.6388 19.6979 83.9529C21.9821 84.3669 23.2955 91.2267 23.2955 91.2267C23.2955 91.2267 25.694 93.9821 29.4201 97.6725V97.6797C33.5246 101.741 39.2423 106.952 45.1171 110.843L45.5811 111.035C42.2761 116.018 34.7738 128.895 33.1605 136.861C16.2929 119.937 0.795855 99.5499 0.817269 97.5012C0.838684 95.374 5.17159 98.1365 5.57133 98.3935C5.12162 97.9081 -0.910166 91.3909 0.117738 89.1709C1.15992 86.9152 6.67064 92.1119 6.94903 92.376Z" fill="#FABAAD"/>
<path id="path308" d="M169.301 28.9743C170.378 30.7303 167.63 58.8977 161.863 82.1398L161.506 82.1969C156.595 78.0496 148.835 72.8244 143.596 70.4117C142.083 67.9847 140.398 65.2222 138.635 62.2955C144.117 50.2962 146.801 35.1703 146.801 35.1703C146.801 35.1703 144.395 28.6103 146.144 27.0827C147.472 25.9192 150.292 29.7095 150.292 29.7095C150.292 29.7095 151.476 17.4104 153.804 18.3455C156.131 19.2806 155.838 27.1826 155.838 27.1826C155.838 27.1826 157.43 16.8179 159.914 17.9386C162.391 19.0593 161.406 27.7608 161.406 27.7608C161.406 27.7608 163.504 20.0444 165.61 21.472C167.716 22.8997 165.674 32.2222 165.674 32.2222C165.674 32.2222 168.13 27.0756 169.301 28.9743Z" fill="#FABAAD"/>
<path id="path310" d="M118.484 64.3513C124.415 57.8413 131.34 63.1593 131.318 71.2254C131.297 80.4266 123.844 82.204 123.844 82.204C123.844 82.204 122.388 90.3345 117.092 98.7362C114.208 103.305 110.189 107.952 104.635 111.406C101.202 113.555 97.176 115.24 92.4712 116.161C90.1591 116.617 87.9034 116.931 85.712 117.123C75.8256 118.009 67.3239 116.382 60.7425 113.484C60.7425 113.484 60.7061 113.462 60.6354 113.434C60.3784 113.305 59.6639 112.955 58.6938 112.512C52.4408 109.336 48.2221 105.003 46.5731 100.828C42.7613 91.191 45.3668 87.3007 46.3804 85.2449C47.4012 83.1891 44.7386 68.5986 44.7386 68.5986L44.6601 68.2845C48.6504 67.2352 52.9904 65.8932 53.54 65.3436C54.5537 64.3157 55.9313 55.7355 56.6095 55.0495C57.2876 54.365 58.4511 62.4312 59.9716 62.6025C61.492 62.7738 74.6906 59.4902 75.0332 58.563C75.3759 57.6343 74.8905 47.6836 75.0689 46.4837C75.2402 45.2852 78.2518 56.4136 79.9443 56.5992C81.6361 56.7848 97.0332 53.5298 98.054 51.9879C98.982 50.5746 98.2325 41.6946 98.104 40.1885C98.3538 42.2443 100.866 58.6408 118.484 64.3513Z" fill="#FABAAD"/>
<path id="path312" d="M74.7319 46.4359C74.7455 46.3838 74.7334 46.3295 74.829 46.1882C74.9383 46.0554 75.1181 46.0155 75.2666 46.0797C75.3387 46.1111 75.3901 46.1582 75.4137 46.1825C75.5072 46.2824 75.5243 46.3281 75.5657 46.3909C75.6321 46.5044 75.6828 46.6072 75.7341 46.7121L76.0133 47.3296L76.5115 48.5617L77.4923 51.0094C77.8164 51.8231 78.1469 52.6319 78.5059 53.4185C78.865 54.1959 79.249 54.9939 79.708 55.6128C79.818 55.7577 79.9464 55.8983 80.0257 55.9469C80.0628 55.9761 80.0842 55.9683 80.015 55.954C80.0535 55.9561 80.1556 55.9526 80.2448 55.9476C80.6338 55.9254 81.0686 55.8655 81.4926 55.8027C82.3456 55.6749 83.2057 55.5157 84.063 55.3487C85.7791 55.0132 87.4901 54.6284 89.1926 54.223C90.8972 53.8318 92.5982 53.4099 94.2628 52.9145C95.0909 52.6654 95.921 52.3999 96.6834 52.0758C96.8718 51.9944 97.0567 51.9088 97.2181 51.8181C97.3737 51.7417 97.5357 51.6011 97.5122 51.6297C97.6071 51.4948 97.7199 51.0243 97.7691 50.6389C97.984 48.9792 97.9533 47.2018 97.929 45.4601C97.9155 43.7077 97.8305 41.9531 97.7641 40.1964C97.7577 40.0079 97.904 39.8502 98.0925 39.8423C98.2688 39.8359 98.4202 39.9665 98.443 40.1386C98.6757 41.8903 98.8341 43.6499 98.9691 45.4159C99.069 47.1904 99.1697 48.9471 99.0083 50.7924C98.9855 51.0243 98.9512 51.2621 98.9013 51.5076C98.8363 51.7632 98.7999 52.003 98.5993 52.3399C98.3152 52.7268 98.0889 52.821 97.8662 52.9631C97.6449 53.0894 97.43 53.1915 97.2159 53.2872C96.3607 53.6626 95.5135 53.9425 94.6604 54.213C92.9551 54.7427 91.2405 55.1902 89.5195 55.6099C87.7942 56.0111 86.0603 56.3666 84.3164 56.6878C83.4434 56.8463 82.569 56.9955 81.6796 57.1182C81.2313 57.1775 80.7923 57.2353 80.3026 57.2574C80.1713 57.2596 80.0528 57.2639 79.8715 57.2446C79.5824 57.2053 79.4039 57.0854 79.2654 56.984C78.9899 56.7706 78.8407 56.5615 78.6894 56.3545C78.1333 55.5293 77.795 54.7077 77.4452 53.8768C77.1061 53.0473 76.8006 52.2136 76.508 51.377L75.6835 48.8608L75.2702 47.6137L75.0574 47.0055C75.0196 46.9084 74.9811 46.8114 74.9433 46.73L74.9133 46.6643L74.9961 46.7164C75.116 46.7685 75.2709 46.735 75.3594 46.6258L75.4058 46.5394V46.5323C75.3794 46.7186 75.2066 46.8478 75.0203 46.8214C74.8347 46.795 74.7055 46.6222 74.7319 46.4359Z" fill="#5B2416"/>
<path id="path314" d="M56.3676 54.8111C56.4269 54.7569 56.5076 54.7076 56.5854 54.6805C56.6689 54.6576 56.7902 54.6691 56.8802 54.7019C56.9887 54.7554 57.0886 54.8447 57.1193 54.8918C57.2228 55.0124 57.2635 55.1009 57.3192 55.2002C57.422 55.3907 57.4941 55.5713 57.5712 55.7555C57.7139 56.1217 57.836 56.4836 57.9566 56.8462L58.6683 58.9984C58.9032 59.7072 59.148 60.4132 59.4464 61.0592C59.5934 61.3747 59.7676 61.6909 59.9403 61.883C60.0217 61.9879 60.1138 62.015 60.051 61.9865C60.0745 61.9886 60.2765 61.9822 60.4393 61.9572C61.8505 61.7409 63.3503 61.4104 64.8029 61.0628C66.2662 60.7151 67.7224 60.3304 69.1715 59.9307C70.6198 59.543 72.0774 59.1369 73.4558 58.6408C73.7913 58.5166 74.1418 58.3759 74.3916 58.2375C74.4695 58.1996 74.4773 58.1804 74.5023 58.1739L74.4295 58.2632L74.4081 58.3188L74.4159 58.2553C74.4259 58.231 74.4352 58.139 74.4416 58.0519L74.4645 57.7963C74.5016 57.0739 74.5166 56.3166 74.533 55.5671L74.5587 51.035L74.598 48.7593C74.6215 47.9891 74.6244 47.2624 74.7321 46.4344C74.7564 46.2495 74.9256 46.1189 75.1112 46.1425C75.2811 46.1646 75.4053 46.3095 75.4053 46.4773V46.5344C75.4089 47.952 75.5188 49.5181 75.5995 51.0122L75.7815 55.5592C75.7993 56.3237 75.8236 57.0804 75.7865 57.8698L75.7629 58.1804C75.7558 58.2817 75.7529 58.3795 75.7172 58.5387L75.6694 58.7536C75.6708 58.7721 75.6309 58.8592 75.5837 58.9334C75.5388 59.007 75.4852 59.0762 75.4281 59.1369C75.3025 59.2454 75.164 59.346 75.0719 59.3931C74.6615 59.6258 74.3053 59.7636 73.9348 59.9099C72.4722 60.4617 71.0153 60.8865 69.547 61.3048C68.0751 61.7009 66.5967 62.0578 65.1091 62.3912C63.6108 62.7067 62.1553 63.0629 60.56 63.2107C60.3479 63.2214 60.1673 63.2535 59.8176 63.1985C59.3793 63.0936 59.173 62.8459 59.0188 62.6632C58.709 62.2698 58.5477 61.8965 58.3878 61.5239C58.0858 60.7787 57.8681 60.0406 57.6633 59.3025L57.1115 57.0932C57.0194 56.7292 56.9259 56.3658 56.8209 56.0168C56.7688 55.8447 56.7167 55.6677 56.6539 55.5185C56.6268 55.4478 56.5861 55.3622 56.5682 55.3379H56.6004L56.7553 55.3472L56.8516 55.2901C56.7196 55.4236 56.504 55.4243 56.3698 55.2922C56.237 55.1602 56.2356 54.9446 56.3676 54.8111Z" fill="#5B2416"/>
<path id="path316" d="M54.6559 36.2267C52.4681 37.9178 50.3387 39.7223 48.3672 41.6646C46.3849 43.5912 44.5004 45.6313 42.9436 47.8785C42.5859 48.4566 42.1655 49.0027 41.86 49.6052L41.3631 50.4882C41.2032 50.7851 41.084 51.0971 40.9427 51.4004C40.3859 52.6147 39.9819 53.9481 39.6243 55.2636C38.9169 57.9126 38.5057 60.648 38.303 63.3891C38.1995 64.7589 38.1467 66.138 38.1924 67.495C38.2038 67.8341 38.2238 68.1703 38.2552 68.4972C38.2709 68.6607 38.2901 68.8213 38.3137 68.9712C38.3272 69.0418 38.3387 69.1211 38.3544 69.1739L38.3722 69.2424C38.3715 69.2424 38.3729 69.2467 38.3744 69.251C38.3786 69.2617 38.3829 69.2731 38.3423 69.2003C38.3244 69.1746 38.1809 69.0012 38.0189 68.9883L38.0332 68.9869C38.0839 68.9847 38.1467 68.9862 38.2195 68.9797C38.3672 68.969 38.5293 68.9483 38.6913 68.9269C39.0211 68.8769 39.3544 68.8206 39.6921 68.7549C42.3925 68.2224 45.0914 67.5036 47.769 66.7755C49.1045 66.4014 50.4422 66.0124 51.7335 65.5591C52.0548 65.4449 52.3731 65.325 52.6729 65.1965C52.8221 65.1315 52.9613 65.0644 53.0755 64.9988L53.1619 64.9302L53.244 64.8124C53.5217 64.3249 53.7265 63.6182 53.9278 62.9801C54.3269 61.6638 54.6652 60.3104 55.0114 58.957C55.1863 58.2803 55.3562 57.6021 55.5475 56.9226C55.6439 56.5842 55.7438 56.2459 55.8573 55.9047C55.9201 55.7326 55.9644 55.567 56.0457 55.3879L56.1578 55.1252C56.2185 55.0195 56.2934 54.9096 56.3677 54.8111C56.4719 54.6712 56.6689 54.6433 56.8081 54.7476C56.9202 54.8311 56.9602 54.976 56.9166 55.1016L56.8517 55.2901L56.7867 55.4207L56.7067 55.6448C56.6482 55.7862 56.6097 55.9625 56.5618 56.1209C56.4719 56.4472 56.3905 56.7834 56.3141 57.121L55.8644 59.1575C55.571 60.5231 55.287 61.8929 54.93 63.2649C54.7309 63.9601 54.5781 64.6197 54.1927 65.3642C54.1241 65.4699 54.0513 65.5748 53.9757 65.6755C53.9086 65.7732 53.7565 65.8753 53.6637 65.9396C53.4781 66.0538 53.3033 66.1402 53.1348 66.2187C52.7964 66.3743 52.4645 66.5078 52.1304 66.6355C50.7984 67.1395 49.4622 67.5621 48.1188 67.974C45.4305 68.7956 42.7251 69.5087 39.9512 70.0869C39.6043 70.1583 39.2502 70.2204 38.8898 70.2782C38.7063 70.3039 38.5214 70.3296 38.3216 70.346C38.2216 70.3546 38.1081 70.3581 37.9846 70.3574C37.9025 70.3524 37.8197 70.3438 37.7383 70.3324C37.4992 70.2817 37.2601 70.0926 37.2094 69.9762C37.0988 69.8049 37.1095 69.7771 37.0738 69.695C37.0438 69.615 37.0359 69.5694 37.021 69.5122C36.9888 69.3966 36.9746 69.3024 36.9553 69.2025C36.9225 69.0076 36.8989 68.8213 36.8803 68.6378C36.8425 68.2702 36.8182 67.909 36.8033 67.5507C36.7433 66.1173 36.7875 64.7004 36.8825 63.2856C37.1002 60.4596 37.5563 57.6507 38.3094 54.9075C38.6963 53.5348 39.1139 52.1849 39.7278 50.8636C40.2945 49.5167 41.0983 48.3189 41.9164 47.1489C45.3406 42.574 49.6535 38.8807 54.2655 35.6692C54.4204 35.5622 54.6324 35.6 54.7395 35.7542C54.8437 35.9034 54.8115 36.1068 54.6688 36.2175L54.6559 36.2267Z" fill="#5B2416"/>
<path id="path318" d="M104.89 88.5577C104.889 88.5577 104.887 88.5577 104.885 88.5577C99.5618 88.5541 95.2581 84.172 95.2717 78.7712C95.286 73.3711 99.6096 68.9968 104.93 68.9968C104.933 68.9968 104.935 68.9968 104.937 68.9968C110.261 68.9997 114.566 73.3811 114.551 78.7826C114.537 84.1827 110.213 88.5577 104.89 88.5577Z" fill="#F68C91"/>
<path id="path320" d="M55.8601 104.583C55.858 104.583 55.8552 104.583 55.8537 104.583C50.53 104.58 46.2257 100.199 46.24 94.7965C46.2542 89.3971 50.5786 85.0221 55.9001 85.0221C55.9016 85.0221 55.9037 85.0221 55.9051 85.0221C61.2288 85.0257 65.5332 89.4071 65.5196 94.8086C65.5046 100.208 61.1817 104.584 55.8601 104.583Z" fill="#F68C91"/>
<path id="path322" d="M119.909 70.3324C119.954 69.4887 120.155 68.6935 120.497 67.9161C120.84 67.1474 121.327 66.3864 122.096 65.8197C122.477 65.5398 122.991 65.305 123.486 65.2643C123.982 65.2129 124.465 65.2643 124.896 65.4021C125.761 65.6797 126.468 66.1466 127.058 66.7719C127.187 66.9104 127.182 67.1274 127.043 67.2573C126.939 67.3565 126.788 67.3758 126.665 67.3201L126.635 67.3058C125.969 67.001 125.26 66.7312 124.605 66.6248C123.937 66.5413 123.385 66.6041 122.937 66.9718C122.432 67.328 122.005 67.8962 121.62 68.5022C121.24 69.1139 120.901 69.7999 120.574 70.4766L120.563 70.5002C120.48 70.6715 120.275 70.7429 120.103 70.6608C119.975 70.5987 119.902 70.4659 119.909 70.3324Z" fill="#CA5247"/>
<path id="path324" d="M74.8072 75.6098C74.6452 75.6098 74.4824 75.5998 74.3197 75.5783C72.1896 75.3021 70.5543 73.8687 70.5707 71.7351C70.5828 70.2425 72.3924 67.5314 74.8429 67.5314C74.9621 67.5314 75.082 67.5379 75.2034 67.5507C77.2378 67.7713 79.0959 70.7344 78.8196 72.4968C78.5648 74.1243 76.7588 75.6098 74.8072 75.6098Z" fill="#F68C91"/>
<path id="path326" d="M77.4212 74.5754C76.6817 74.3655 78.1871 72.137 78.6882 72.4225C79.1893 72.7095 78.1607 74.7853 77.4212 74.5754Z" fill="#4B1A15"/>
<path id="path328" d="M73.1248 74.9994C72.6394 74.7125 72.1633 74.3463 71.8378 73.9144C71.5037 73.484 71.2767 72.9986 71.181 72.4625C71.1204 72.2041 71.1054 71.9043 71.0983 71.6509C71.0954 71.4075 71.1554 71.1484 71.2289 70.8807C71.3931 70.351 71.6907 69.8078 71.9998 69.2988L72.0112 69.2789C72.0862 69.1554 72.0484 68.994 71.9263 68.9177C71.8328 68.8591 71.7157 68.8698 71.6329 68.9341C71.0932 69.3567 70.6685 69.8778 70.3552 70.5238C70.1953 70.8443 70.0918 71.2076 70.0561 71.5981C70.0382 71.9785 70.0596 72.3162 70.126 72.6795C70.2595 73.3912 70.6121 74.085 71.1432 74.574C71.6657 75.0729 72.2882 75.3977 72.9906 75.5027C73.1312 75.5234 73.2611 75.4256 73.2826 75.2821C73.2983 75.1736 73.2461 75.0708 73.1583 75.0187L73.1248 74.9994Z" fill="#8A2626"/>
<path id="path330" d="M63.3931 73.3734C63.3981 71.5867 61.974 70.1362 60.2116 70.1355C58.4499 70.1341 57.0186 71.5831 57.0144 73.3705C57.0094 75.1579 58.4334 76.607 60.1952 76.6084C61.9562 76.6091 63.3881 75.1608 63.3931 73.3734Z" fill="#100F0D"/>
<path id="path332" d="M55.5583 70.3496C56.1886 70.6451 56.7062 71.0156 57.198 71.2526C57.4385 71.3789 57.6684 71.466 57.9011 71.5424C58.1345 71.5995 58.3779 71.6252 58.7155 71.633L58.7869 71.6345C58.9875 71.6395 59.1467 71.8079 59.1417 72.0114C59.1396 72.1013 59.1053 72.1834 59.0511 72.2462C58.7655 72.576 58.3244 72.7959 57.854 72.8387C57.3871 72.878 56.9388 72.7538 56.5548 72.5717C56.1715 72.3797 55.851 72.122 55.5919 71.8194C55.3292 71.516 55.1257 71.1883 55.0065 70.775C54.9494 70.5773 55.0608 70.3696 55.2571 70.3103C55.3456 70.2832 55.437 70.2925 55.5148 70.3296L55.5583 70.3496Z" fill="#100F0D"/>
<path id="path334" d="M87.0414 68.0375C86.1177 66.5177 86.5853 64.5233 88.0857 63.5832C89.5869 62.6431 91.5506 63.1135 92.4736 64.6333C93.3973 66.1537 92.9297 68.1481 91.43 69.0889C89.9295 70.0283 87.9644 69.5579 87.0414 68.0375Z" fill="#100F0D"/>
<path id="path336" d="M92.1606 61.2841C91.7751 61.8723 91.5246 62.4633 91.2283 62.9273C91.0877 63.1643 90.9371 63.3606 90.7779 63.5498C90.6087 63.7232 90.4146 63.8753 90.1305 64.0616L90.0705 64.1008C89.9021 64.2122 89.8535 64.4399 89.9627 64.6105C90.0106 64.6869 90.0819 64.7383 90.1605 64.7625C90.5731 64.891 91.0627 64.8425 91.4853 64.6291C91.9036 64.4142 92.2213 64.0687 92.4547 63.7089C92.6824 63.3413 92.823 62.9509 92.888 62.5547C92.9551 62.1571 92.9601 61.7688 92.8494 61.3533C92.7966 61.1534 92.5939 61.0364 92.3976 61.0899C92.3076 61.1156 92.2348 61.172 92.187 61.2441L92.1606 61.2841Z" fill="#100F0D"/>
<path id="path338" d="M93.45 74.6875C96.2482 76.5791 96.0626 84.167 91.9438 90.0918C91.9438 90.0918 85.5051 86.2657 79.1236 88.7498C71.9211 91.5551 70.6291 96.7089 70.6291 96.7089C63.5265 94.1891 60.7997 87.3721 61.8848 84.3669C63.9334 78.7063 70.5434 82.2468 76.7822 80.5979C85.1839 78.3708 88.753 71.511 93.45 74.6875Z" fill="#100F0D"/>
<path id="path340" d="M79.1235 88.7498C85.5051 86.2657 91.9438 90.0918 91.9438 90.0918C89.6667 93.3754 86.1689 96.1521 81.3007 97.1586C77.0177 98.0438 73.4772 97.7225 70.629 96.7089C70.629 96.7089 71.921 91.5551 79.1235 88.7498Z" fill="#F46890"/>
<path id="path342" d="M8.31595 97.0872C8.42016 96.297 8.67643 95.5796 9.01478 94.8836C9.35099 94.1905 9.79071 93.5445 10.2997 92.9542C10.8108 92.366 11.4125 91.8456 12.0799 91.4345C12.7345 91.0019 13.4919 90.7321 14.2457 90.5764C14.4312 90.5379 14.6133 90.6578 14.6518 90.8441C14.6797 90.9812 14.6226 91.1161 14.5155 91.1925L14.4876 91.2125C13.9016 91.6329 13.3256 91.992 12.8173 92.4538C12.3041 92.9014 11.8108 93.3661 11.3739 93.8921C10.9242 94.4032 10.5095 94.9522 10.1105 95.5218C9.7179 96.0907 9.33529 96.6968 8.96553 97.2892L8.94981 97.3156C8.84916 97.477 8.63645 97.5255 8.47513 97.4256C8.35663 97.3513 8.29882 97.2171 8.31595 97.0872Z" fill="#CA5247"/>
<path id="path344" d="M162.208 32.9903C161.587 32.6727 160.946 32.35 160.317 32.0638C159.681 31.7818 159.043 31.5248 158.394 31.3171C157.749 31.0915 157.087 30.9474 156.417 30.8282C155.743 30.694 155.064 30.6832 154.345 30.6247L154.312 30.6218C154.123 30.6061 153.981 30.4405 153.997 30.2507C154.009 30.1115 154.101 29.998 154.226 29.9537C154.952 29.6996 155.74 29.5411 156.523 29.5747C157.308 29.584 158.091 29.7196 158.832 29.9608C159.572 30.205 160.282 30.5319 160.928 30.9538C161.576 31.3764 162.164 31.8582 162.662 32.4821C162.781 32.6313 162.755 32.8483 162.607 32.9668C162.497 33.0538 162.353 33.0638 162.235 33.0046L162.208 32.9903Z" fill="#CA5247"/>
<path id="path346" d="M118.964 59.0362C116.291 56.0103 113.59 53.0565 111.255 49.7508C108.963 46.5051 106.903 43.0823 105.176 39.5025C105.014 39.1663 104.421 39.4068 104.565 39.7609C106.107 43.5284 107.965 47.1425 110.247 50.5175C112.515 53.8724 115.099 57.1717 118.183 59.8164C118.721 60.279 119.438 59.5723 118.964 59.0362Z" fill="#5B2416"/>
<path id="path348" d="M120.47 54.1523C119.319 52.0672 117.97 50.0643 116.677 48.0641C115.376 46.0533 114.07 44.046 112.773 42.0316C112.568 41.7133 112.097 41.9909 112.268 42.3271C113.37 44.5043 114.538 46.6229 115.811 48.7051C117.048 50.7274 118.378 52.7711 119.905 54.5877C120.175 54.909 120.662 54.4985 120.47 54.1523Z" fill="#5B2416"/>
<path id="path350" d="M131.183 105.424C131.017 103.114 130.715 100.813 130.322 98.5306C129.926 96.2257 129.431 93.9386 128.88 91.6658C128.598 90.5008 128.285 89.3444 127.957 88.1902C127.678 87.2072 127.509 85.9909 126.875 85.1728C126.73 84.9844 126.482 85.165 126.461 85.3442C126.342 86.3421 126.827 87.4706 127.064 88.4364C127.336 89.5464 127.601 90.6564 127.87 91.7671C128.407 93.985 128.89 96.2157 129.283 98.4642C129.676 100.713 129.975 102.978 130.142 105.255C130.312 107.575 130.127 109.912 130.305 112.223C130.339 112.662 131.033 112.829 131.128 112.335C131.555 110.105 131.345 107.674 131.183 105.424Z" fill="#5B2416"/>
<path id="path352" d="M149.637 98.7147C149.103 97.7532 148.569 96.7903 148.04 95.8259C146.953 93.8458 145.865 91.8663 144.785 89.8833C142.622 85.9145 140.416 81.9949 138.109 78.1074C138.039 77.9896 137.823 78.0696 137.88 78.2038C139.629 82.3504 141.533 86.377 143.611 90.368C144.655 92.3724 145.713 94.3683 146.796 96.352C147.351 97.3685 147.91 98.3835 148.471 99.3972C148.916 100.201 149.323 101.444 150.189 101.859C150.503 102.01 150.809 101.823 150.844 101.484C150.94 100.526 150.085 99.5214 149.637 98.7147Z" fill="#5B2416"/>
<path id="path354" d="M152.26 88.2294C148.953 83.3732 145.476 78.6313 142.159 73.7802C138.837 68.9205 135.628 63.9822 132.374 59.0776C132.22 58.8456 131.861 59.0497 131.999 59.2974C134.882 64.4919 138.06 69.5044 141.377 74.4333C144.639 79.2787 148.03 84.1163 151.761 88.6141C151.991 88.8904 152.463 88.527 152.26 88.2294Z" fill="#5B2416"/>
<path id="path356" d="M128.252 54.0694C127.528 51.1585 126.07 48.3003 124.722 45.6335C123.464 43.148 122.025 40.7574 120.295 38.5702C118.685 36.5337 116.814 34.6906 114.678 33.2094C112.741 31.8674 110.249 30.5826 107.956 31.8103C107.707 31.9431 107.876 32.3585 108.148 32.2693C110.698 31.4356 113.363 33.2972 115.269 34.8069C117.169 36.3124 118.819 38.1241 120.238 40.0835C121.752 42.1722 123.017 44.4285 124.139 46.747C125.344 49.2361 126.217 51.9537 127.626 54.3335C127.826 54.6698 128.347 54.447 128.252 54.0694Z" fill="#5B2416"/>
<path id="path358" d="M35.209 82.9114C35.1412 79.9691 35.1976 77.026 35.3654 74.0872C35.3832 73.7745 34.9028 73.7788 34.88 74.0872C34.6565 77.081 34.5438 80.0833 34.5695 83.0849C34.5944 85.9616 34.6972 88.9425 35.1469 91.7871C35.1876 92.0498 35.6152 91.9856 35.6066 91.725C35.516 88.7855 35.2769 85.8545 35.209 82.9114Z" fill="#5B2416"/>
<path id="path360" d="M42.0676 102.088C41.7914 100.904 41.5715 99.7063 41.3987 98.5028C41.034 95.9608 40.8684 93.3925 40.7627 90.8292C40.5493 85.644 40.3908 80.4545 40.2216 75.2679C40.2045 74.7311 39.3743 74.7275 39.3851 75.2679C39.4957 80.5644 39.4843 85.871 39.7427 91.1625C39.8612 93.5945 40.0603 96.0215 40.4208 98.43C40.6014 99.632 40.8234 100.828 41.1004 102.012C41.3787 103.208 41.6143 104.501 42.321 105.527C42.4523 105.718 42.8 105.667 42.7885 105.4C42.7393 104.264 42.3246 103.19 42.0676 102.088Z" fill="#5B2416"/>
<path id="path362" d="M44.5582 56.4151C44.4225 56.4151 44.2841 56.388 44.1456 56.3302C43.7223 56.1517 43.5146 55.7798 43.4789 55.3387C43.4361 54.8269 43.733 54.3622 43.9343 53.906C43.9807 53.7918 44.0257 53.6769 44.0763 53.5634L44.1413 53.4185L44.142 53.4171C44.2184 53.2129 44.2998 53.0116 44.3754 52.8082C44.4647 52.5655 44.5839 52.3349 44.6874 52.0972L44.7145 52.033C44.7423 51.9466 44.7909 51.8724 44.858 51.8095L44.9515 51.7225C45.0814 51.6047 45.2077 51.5483 45.3819 51.5311C45.3933 51.5297 45.4055 51.529 45.4169 51.529C45.6375 51.529 45.8138 51.741 45.918 51.9066C46.0515 52.12 46.0593 52.3813 46.0915 52.6254C46.1336 52.9531 46.1307 53.2629 46.1051 53.5919C46.0751 53.9881 46.0244 54.3807 45.9402 54.769C45.8359 55.248 45.7182 55.7727 45.3305 56.1053C45.1036 56.3009 44.8366 56.4151 44.5582 56.4151Z" fill="#904B27"/>
<path id="path364" d="M48.5144 56.0304C48.3202 56.0304 48.1332 55.9847 47.9512 55.8876C47.7392 55.7756 47.5707 55.5514 47.4807 55.3237C47.4272 55.2074 47.3894 55.081 47.373 54.9611C47.3487 54.7784 47.3487 54.6142 47.403 54.43C47.4444 54.2915 47.505 54.1538 47.5793 54.0281L47.6599 53.8661C47.7392 53.6527 47.797 53.4328 47.8363 53.2087L47.8477 53.068C47.8591 52.891 47.9048 52.724 47.9297 52.5498C47.9276 52.5669 47.9255 52.5841 47.9226 52.6019C47.9412 52.4877 47.9712 52.3842 48.0433 52.2686C48.221 51.9845 48.5215 51.826 48.832 51.826C48.9848 51.826 49.1397 51.8638 49.2839 51.9438C49.6322 52.1365 49.8657 52.5998 49.9527 52.9745C50.0177 53.2543 50.0691 53.5534 50.0584 53.8411C50.0455 54.1445 50.0041 54.4543 49.9299 54.7491C49.9035 54.8547 49.8714 54.959 49.8321 55.0603C49.7457 55.2887 49.6336 55.495 49.4616 55.6706C49.3188 55.8148 49.1104 55.9347 48.9155 55.9883C48.8306 56.0111 48.7092 56.0268 48.6079 56.0268C48.5765 56.029 48.5451 56.0304 48.5144 56.0304Z" fill="#904B27"/>
<path id="path366" d="M52.6023 55.1538C52.2925 55.1538 51.9884 55.0103 51.8271 54.7048C51.68 54.4257 51.5673 54.1516 51.5887 53.8296C51.6051 53.5834 51.6415 53.3243 51.6915 53.0844C51.7628 52.7361 51.8492 52.3906 51.9228 52.0429C52.0719 51.3355 52.2047 50.6246 52.3218 49.9115C52.3853 49.5253 52.7979 49.2876 53.1626 49.2876C53.1983 49.2876 53.2333 49.2897 53.2676 49.294C53.6845 49.3504 54.0171 49.7109 54.0142 50.1406C54.0092 50.8666 53.9878 51.5925 53.9507 52.3171C53.9307 52.6847 53.9186 53.0559 53.8793 53.4213C53.855 53.6555 53.8172 53.8939 53.763 54.1237C53.6909 54.4285 53.5089 54.6827 53.2826 54.8925C53.097 55.0638 52.8478 55.1538 52.6023 55.1538Z" fill="#904B27"/>
<path id="path368" d="M61.4294 55.2301C61.3359 55.2301 61.2403 55.223 61.1425 55.208C60.3537 55.0902 59.9818 54.29 59.834 53.604C59.7113 53.0351 59.6228 52.4512 59.5985 51.8702C59.5507 50.7495 59.6977 49.6673 60.0568 48.6051C60.1688 48.2732 60.4465 48.0598 60.7849 48.0598C60.817 48.0598 60.8498 48.0619 60.8834 48.0655C61.2474 48.109 61.5379 48.4338 61.5365 48.805C61.5329 49.319 61.5851 49.8236 61.6243 50.3347C61.6343 50.4632 61.6429 50.591 61.655 50.7195L61.6871 50.9786C61.7235 51.2085 61.7642 51.4383 61.8149 51.666C61.922 52.145 62.0619 52.6075 62.2004 53.0758L62.2011 53.0765L62.2082 53.1008V53.1015C62.4095 53.2735 62.563 53.4463 62.6387 53.7361C62.7193 54.0402 62.6836 54.3821 62.5123 54.6505C62.2518 55.0602 61.8699 55.2301 61.4294 55.2301Z" fill="#904B27"/>
<path id="path370" d="M64.2218 53.0365C63.994 53.0365 63.7556 52.9723 63.575 52.8666C63.338 52.7282 63.0496 52.4126 63.0061 52.1271C62.959 51.8095 62.9012 51.4897 62.8733 51.1706C62.8534 50.945 62.8412 50.7173 62.8241 50.4917C62.8084 50.2648 62.7912 50.0385 62.7755 49.8122C62.7591 49.5823 62.7863 49.3618 62.8084 49.1333C62.832 48.8964 62.8912 48.6572 63.0754 48.488C63.1924 48.3817 63.3273 48.3017 63.478 48.2539C63.5486 48.2311 63.6229 48.2204 63.6971 48.2204C63.8263 48.2204 63.9562 48.2511 64.0712 48.2996C64.2425 48.3717 64.423 48.4995 64.508 48.6729C64.6365 48.9356 64.7743 49.1947 64.8571 49.4781C64.9213 49.6973 64.9856 49.9171 65.0498 50.1377C65.1797 50.5795 65.2989 51.0171 65.3938 51.4682C65.4652 51.808 65.4303 52.1178 65.2689 52.4226C65.1176 52.7089 64.8292 52.8945 64.5294 52.9916C64.4338 53.0222 64.3295 53.0365 64.2218 53.0365Z" fill="#904B27"/>
<path id="path372" d="M67.8237 52.5055C67.8108 52.5055 67.7987 52.5055 67.7851 52.5048C67.6695 52.4891 67.5538 52.4734 67.4375 52.4584C67.2683 52.4177 67.1199 52.3399 66.9935 52.2236C66.8522 52.1322 66.7401 52.0101 66.6573 51.8581C66.5738 51.6882 66.5003 51.5183 66.4603 51.3334C66.4424 51.2492 66.426 51.1635 66.4132 51.0786C66.3704 50.8123 66.3239 50.5404 66.3268 50.2698C66.3289 50.0978 66.3404 49.9258 66.3604 49.7552C66.3811 49.5853 66.3975 49.4132 66.4303 49.2455C66.4617 49.0877 66.5366 48.9457 66.6302 48.8165C66.7172 48.6694 66.8343 48.5524 66.9814 48.466C67.1341 48.3775 67.299 48.3325 67.476 48.3318C67.8315 48.3318 68.1328 48.5231 68.3205 48.8165C68.3983 48.9386 68.4733 49.0692 68.509 49.2105L68.5489 49.404C68.5782 49.5346 68.6124 49.6638 68.6524 49.7909C68.7238 50.0186 68.8059 50.2448 68.8944 50.4668C68.953 50.5918 69.0101 50.7181 69.0443 50.8516C69.1343 51.2007 69.0786 51.5433 68.913 51.8581C68.8302 52.0101 68.7188 52.1322 68.5768 52.2236C68.4954 52.3049 68.399 52.3613 68.2877 52.392C68.1435 52.4677 67.9886 52.5055 67.8237 52.5055Z" fill="#904B27"/>
<path id="path374" d="M70.4407 51.3591C70.3065 51.3591 70.1809 51.3277 70.0631 51.2663C69.9724 51.2406 69.8946 51.1949 69.8275 51.1285C69.7111 51.0536 69.6191 50.9529 69.552 50.8287C69.5163 50.7438 69.4806 50.6581 69.4442 50.5732C69.3435 50.3212 69.4028 50.0485 69.4578 49.7937C69.4749 49.7137 69.492 49.6338 69.5091 49.5531C69.5427 49.3932 69.5777 49.2333 69.6119 49.0734C69.639 48.9564 69.6926 48.855 69.7725 48.7686C69.8353 48.6709 69.9189 48.5945 70.0231 48.5388C70.0945 48.5081 70.1651 48.4781 70.2372 48.4474C70.3158 48.4374 70.3957 48.4267 70.4749 48.416C70.4842 48.4153 70.4928 48.4153 70.5013 48.4153C70.6148 48.4153 70.7212 48.441 70.8197 48.4931C70.8954 48.5138 70.9618 48.5524 71.0175 48.608C71.1153 48.6709 71.1916 48.7551 71.248 48.8593C71.278 48.93 71.308 49.0021 71.3379 49.0734C71.3722 49.2333 71.4065 49.3932 71.4407 49.5531C71.4579 49.6338 71.475 49.7137 71.4921 49.7937L71.5157 49.905L71.5235 49.9415C71.5685 50.0856 71.5749 50.2306 71.5421 50.3755C71.5321 50.4497 71.5314 50.5082 71.505 50.5732C71.4728 50.7124 71.4086 50.8337 71.3144 50.9372C71.2387 51.0536 71.1388 51.145 71.0146 51.2121C70.9297 51.2477 70.8447 51.2842 70.7583 51.3198C70.6648 51.3327 70.5699 51.3455 70.4749 51.3584C70.4635 51.3584 70.4521 51.3591 70.4407 51.3591Z" fill="#904B27"/>
<path id="path376" d="M80.6219 50.9465C80.4898 50.9465 80.3556 50.9308 80.2221 50.9008C79.5533 50.7494 79.0122 50.1641 79.0072 49.4624L79.0179 49.3425C78.7809 48.5409 78.5511 47.7371 78.3076 46.9376C78.1606 46.4558 77.9943 45.9797 77.8651 45.4936C77.7237 44.9625 77.5403 44.4086 77.5895 43.8532C77.6245 43.4606 77.808 43.1315 78.1806 42.9745C78.3055 42.9217 78.4269 42.8974 78.5439 42.8974C78.7909 42.8974 79.0207 43.0045 79.232 43.1736C79.6782 43.5313 79.9451 44.0681 80.215 44.5599C80.4562 44.9982 80.6504 45.4657 80.8524 45.9226C81.305 46.9476 81.7311 47.9755 82.0845 49.0391C82.2522 49.5438 82.0609 50.1448 81.6947 50.511C81.3985 50.8073 81.0187 50.9465 80.6219 50.9465Z" fill="#904B27"/>
<path id="path378" d="M83.652 48.9778C83.3036 48.9778 82.9653 48.84 82.6954 48.5902C82.3085 48.2325 82.1765 47.6151 82.0052 47.1232C81.8967 46.8092 81.7768 46.4958 81.6875 46.1746C81.4898 45.4672 81.2028 44.7148 81.2635 43.9717C81.2928 43.607 81.4684 43.2993 81.8139 43.1537C81.9288 43.1051 82.0437 43.083 82.1565 43.083C82.3857 43.083 82.6048 43.1772 82.7918 43.3386C83.3529 43.8254 83.6705 44.5492 84.0225 45.1902C84.1831 45.4815 84.3172 45.7884 84.4593 46.0896C84.6834 46.5643 85.0347 47.0997 85.0083 47.6315C84.9818 48.1818 84.6856 48.6551 84.1752 48.87C84.0032 48.9428 83.8262 48.9778 83.652 48.9778Z" fill="#904B27"/>
<path id="path380" d="M86.9919 47.9178C86.9248 47.9178 86.8577 47.9128 86.7927 47.9042C86.6214 47.8963 86.4622 47.8457 86.3137 47.7507C86.2267 47.6836 86.1403 47.6172 86.0532 47.5501C85.9704 47.4481 85.8905 47.3453 85.8119 47.2396C85.7591 47.1176 85.7077 46.9948 85.6577 46.872C85.6285 46.7942 85.6014 46.7171 85.5728 46.6393C85.5235 46.5044 85.475 46.3688 85.4251 46.2339C85.3273 45.9633 85.2344 45.6913 85.1459 45.4172C84.9618 44.8512 84.7776 44.2858 84.5942 43.719C84.4542 43.2886 84.7212 42.8211 85.1174 42.6533C85.2323 42.6048 85.3501 42.5819 85.4657 42.5819C85.7748 42.5819 86.0668 42.7468 86.2452 43.0238L87.206 44.5157C87.3695 44.7691 87.5287 45.0232 87.6822 45.2823C87.8678 45.5921 88.1333 45.9412 88.2068 46.2967C88.2739 46.6222 88.2646 46.9969 88.0762 47.2889C87.9563 47.4752 87.8006 47.6308 87.6143 47.7507C87.4309 47.8692 87.2089 47.9178 86.9919 47.9178Z" fill="#904B27"/>
<path id="path382" d="M90.6016 46.8463C90.2761 46.8463 89.9377 46.7279 89.7271 46.4852C89.5465 46.2781 89.4109 46.0633 89.3631 45.7927C89.3502 45.7228 89.3367 45.6528 89.3203 45.5836C89.2896 45.4451 89.2474 45.3102 89.2132 45.1731C89.1539 44.929 89.0733 44.6927 88.9812 44.46C88.9369 44.3658 88.8955 44.2709 88.8456 44.1802C88.7735 44.0467 88.68 43.9125 88.645 43.7648C88.6293 43.6963 88.6193 43.627 88.6036 43.5585C88.5386 43.2558 88.6 42.9517 88.8234 42.7283C88.9783 42.5734 89.2082 42.4735 89.433 42.4735C89.508 42.4735 89.5829 42.4849 89.6536 42.5084L89.8057 42.562C89.942 42.6141 90.0526 42.6605 90.1647 42.7469L90.306 42.8604C90.3917 42.9382 90.4724 43.0203 90.5509 43.1038C90.7622 43.3301 90.9535 43.577 91.1327 43.8283C91.2711 44.021 91.3996 44.2216 91.4931 44.4393C91.698 44.9147 91.9435 45.408 91.7922 45.9405C91.6744 46.356 91.3468 46.6886 90.9292 46.8035C90.8257 46.8321 90.7144 46.8463 90.6016 46.8463Z" fill="#904B27"/>
<path id="path384" d="M93.7678 46.1617C93.5715 46.1617 93.3759 46.1125 93.2367 46.009C93.1125 45.9183 93.0083 45.8376 92.9148 45.7156C92.812 45.5835 92.8256 45.5999 92.7599 45.4443C92.69 45.3115 92.6578 45.1688 92.6635 45.0153L92.6628 45.006C92.6457 44.8775 92.6321 44.7491 92.6293 44.6184L92.6171 44.45C92.5886 44.2979 92.5493 44.1487 92.4986 44.0031C92.4173 43.8275 92.3288 43.6562 92.2153 43.4992C92.2117 43.4949 92.2081 43.4899 92.2053 43.4849C92.1996 43.4777 92.1946 43.4706 92.1889 43.4635L92.1981 43.4756C92.146 43.3999 92.1046 43.3178 92.0796 43.2265C92.0689 43.1494 92.0582 43.0709 92.0482 42.9931C92.0397 42.8003 92.1225 42.609 92.2367 42.4613C92.3559 42.3064 92.5079 42.2057 92.6928 42.1458C92.7571 42.1258 92.8377 42.1151 92.9226 42.1151C93.0854 42.1151 93.2639 42.1536 93.3695 42.2343C93.5958 42.4084 93.8121 42.5798 93.9962 42.7975C94.1783 43.0138 94.3517 43.2429 94.4859 43.4927C94.6258 43.754 94.7436 44.036 94.825 44.3208C94.8778 44.5064 94.9092 44.7012 94.9006 44.894C94.8942 45.0317 94.8828 45.1773 94.8521 45.3108C94.7843 45.6114 94.5602 45.8419 94.3182 46.009C94.174 46.1089 93.9706 46.1617 93.7678 46.1617Z" fill="#904B27"/>
<path id="path386" d="M35.6933 58.1668C35.6455 58.1668 35.5956 58.1639 35.5442 58.1568C35.1694 58.1068 34.7418 57.807 34.6704 57.403C34.6005 57.0132 34.5819 56.7163 34.6597 56.3265C34.7026 56.1145 34.7732 55.9125 34.8396 55.7077C34.9724 55.2972 35.1037 54.8882 35.2365 54.4785C35.5135 53.619 35.8025 52.7374 36.2737 51.9629C36.4093 51.7402 36.6127 51.6432 36.8162 51.6432C37.1467 51.6432 37.4757 51.9016 37.505 52.297C37.5721 53.1986 37.4201 54.1008 37.2773 54.9896C37.2088 55.4164 37.1396 55.844 37.071 56.2709C36.9904 56.7691 36.9061 57.2402 36.5928 57.655C36.3608 57.9633 36.0702 58.1668 35.6933 58.1668Z" fill="#904B27"/>
<path id="path388" d="M33.3899 55.3529C33.3228 55.3529 33.2557 55.3451 33.1929 55.3272C32.9352 55.2566 32.7518 55.0488 32.6525 54.8126C32.5712 54.6212 32.5819 54.4528 32.6012 54.2565C32.634 53.9274 32.7082 53.5919 32.8653 53.2957C33.0466 52.9523 33.2507 52.6197 33.4428 52.2835C33.572 52.0572 33.8139 51.9401 34.0616 51.9401C34.1202 51.9401 34.1787 51.9466 34.2358 51.9594C34.3836 51.993 34.5113 52.0958 34.6013 52.2121C34.6634 52.2799 34.7055 52.3591 34.7269 52.4505L34.7519 52.6375C34.7041 53.0137 34.6563 53.3906 34.6084 53.7675C34.5892 53.9181 34.5813 54.0024 34.5385 54.1287L34.4885 54.28C34.4378 54.4314 34.3771 54.5777 34.2943 54.7155C34.1765 54.9082 34.0688 55.1009 33.866 55.2216C33.7297 55.303 33.5577 55.3529 33.3899 55.3529Z" fill="#904B27"/>
<path id="path390" d="M104.898 50.6916C104.786 50.6916 104.676 50.6773 104.578 50.6502C104.247 50.5596 104.043 50.3526 103.847 50.0884C103.623 49.7858 103.476 49.416 103.325 49.0734C103.146 48.6694 102.97 48.2618 102.822 47.8456C102.558 47.1082 102.347 46.2923 102.347 45.5086C102.347 45.1409 102.602 44.8369 102.943 44.7269C103.013 44.7041 103.082 44.6941 103.152 44.6941C103.435 44.6941 103.71 44.864 103.86 45.0995C104.24 45.697 104.531 46.3573 104.862 46.9855C105.028 47.2988 105.197 47.6108 105.379 47.9141C105.568 48.2282 105.798 48.5259 105.958 48.855C106.258 49.471 106.11 50.1456 105.519 50.5274C105.347 50.6381 105.118 50.6916 104.898 50.6916Z" fill="#904B27"/>
<path id="path392" d="M106.652 47.5537C106.44 47.5537 106.259 47.4717 106.091 47.3239C106.011 47.2539 105.961 47.1654 105.918 47.0719C105.922 47.0826 105.927 47.0933 105.931 47.104C105.878 46.9813 105.801 46.8642 105.766 46.735L105.716 46.5558C105.692 46.4809 105.662 46.4066 105.634 46.3324C105.577 46.2089 105.512 46.0911 105.432 45.9805L105.42 45.9669C105.294 45.8263 105.228 45.67 105.22 45.4815C105.213 45.3316 105.277 45.1817 105.367 45.0661C105.502 44.8905 105.7 44.802 105.903 44.802C106.021 44.802 106.14 44.8312 106.252 44.8898C106.423 44.9797 106.576 45.0968 106.727 45.2188C106.831 45.3023 106.928 45.3973 107.013 45.5008C107.098 45.6029 107.183 45.7057 107.245 45.8234C107.294 45.9148 107.333 46.0083 107.373 46.104C107.44 46.2631 107.457 46.3046 107.474 46.5037L107.48 46.5937C107.487 46.7907 107.457 46.9855 107.359 47.1604C107.236 47.381 107.014 47.5131 106.769 47.5459C106.729 47.5509 106.69 47.5537 106.652 47.5537Z" fill="#904B27"/>
<path id="path394" d="M111.236 47.7872C111.038 47.7872 110.837 47.7358 110.644 47.6415C110.341 47.4924 110.128 47.1497 109.929 46.8892C109.824 46.7528 109.725 46.6151 109.637 46.468C109.457 46.1654 109.29 45.8549 109.138 45.5372C108.952 45.1482 108.766 44.7499 108.648 44.3344C108.602 44.1709 108.56 44.0075 108.52 43.8419C108.486 43.6955 108.447 43.5414 108.445 43.3922C108.443 43.2523 108.476 43.1123 108.51 42.9774C108.577 42.7048 108.809 42.4835 109.076 42.4107C109.148 42.3907 109.218 42.3814 109.283 42.3814C109.489 42.3814 109.669 42.4692 109.842 42.5998C109.795 42.5641 109.772 42.5463 109.772 42.5463C109.772 42.5463 109.786 42.5563 109.812 42.577C109.949 42.6576 110.058 42.7669 110.138 42.9039L110.23 43.0567C110.288 43.1609 110.348 43.2651 110.408 43.3672C110.537 43.582 110.667 43.7955 110.793 44.0118C111.05 44.4572 111.338 44.8826 111.653 45.2902C111.617 45.2438 111.581 45.1974 111.545 45.151C111.74 45.4051 111.927 45.665 112.122 45.9191L112.079 45.8627C112.187 46.0083 112.279 46.1561 112.328 46.3467C112.443 46.7985 112.283 47.2689 111.917 47.5516C111.707 47.7136 111.474 47.7872 111.236 47.7872Z" fill="#904B27"/>
<path id="path396" d="M117.174 44.9725C117.087 44.9725 117.002 44.9582 116.923 44.9254C116.782 44.8676 116.658 44.8197 116.537 44.7262C116.422 44.637 116.341 44.5364 116.258 44.4164L116.157 44.2658C116.089 44.1652 116.022 44.0659 115.952 43.9667C115.815 43.7683 115.669 43.5756 115.538 43.3728C115.276 42.9624 115.002 42.5591 114.72 42.1615C114.463 41.7996 114.625 41.2671 114.948 41.0172C115.107 40.8952 115.301 40.8331 115.495 40.8331C115.72 40.8331 115.945 40.9166 116.112 41.0865C116.454 41.4355 116.789 41.7917 117.115 42.1572C117.328 42.3956 117.516 42.6583 117.709 42.9145C117.782 43.0102 117.855 43.108 117.927 43.2051L118.035 43.3521C118.152 43.5263 118.197 43.7412 118.204 43.9496C118.214 44.2665 118.049 44.5549 117.806 44.7441C117.638 44.8726 117.401 44.9725 117.174 44.9725Z" fill="#904B27"/>
<path id="path398" d="M119.026 43.5078C118.935 43.5078 118.846 43.4935 118.762 43.4599C118.551 43.3771 118.385 43.3093 118.223 43.1444C118.118 43.0381 118.057 42.9338 117.988 42.8125C117.932 42.7147 117.875 42.6176 117.819 42.5198C117.71 42.3307 117.601 42.1415 117.491 41.9523C117.381 41.7617 117.281 41.5697 117.184 41.372C117.135 41.2706 117.084 41.1693 117.036 41.0672C116.982 40.9551 116.925 40.8438 116.901 40.7217L116.877 40.5611C116.845 40.3548 116.839 40.1921 116.92 40C116.98 39.858 117.064 39.7495 117.186 39.6553C117.336 39.5396 117.516 39.4704 117.708 39.4704C117.845 39.4704 118.026 39.5096 118.142 39.5874C118.284 39.6831 118.435 39.7723 118.546 39.903C118.616 39.9872 118.683 40.0757 118.753 40.1621C118.935 40.3898 119.115 40.6182 119.28 40.8581C119.404 41.0379 119.529 41.2185 119.654 41.3984C119.873 41.7153 120.128 42.0259 120.1 42.4413C120.076 42.7832 119.957 43.0595 119.683 43.2715C119.507 43.4071 119.263 43.5078 119.026 43.5078Z" fill="#904B27"/>
<path id="path494" d="M196.692 9.3884C195.806 9.0679 194.821 8.91942 193.9 8.74596C193.384 8.64888 192.865 8.56822 192.347 8.48471C192.092 8.44402 191.481 8.41904 191.276 8.23558L191.245 8.11067C191.185 7.89438 191.245 7.49178 191.249 7.26978C191.259 6.69658 191.283 6.12409 191.319 5.55232C191.386 4.4823 191.858 2.94044 191.299 1.94538C190.718 0.913191 189.495 0.776846 188.443 0.584114C187.166 0.349979 185.882 0.164396 184.594 0.00592804C184.395 -0.0190544 184.18 0.0366135 183.98 0.139404C183.809 0.110851 183.638 0.0823021 183.467 0.0544643C182.93 -0.0333366 182.305 0.187237 182.175 0.788275C181.878 2.14525 181.625 3.4951 181.401 4.86635C181.289 5.55019 181.178 6.23473 181.067 6.91928C181.007 7.28547 181.002 7.81299 180.898 8.24128C180.833 8.23771 180.768 8.23701 180.704 8.23201C180.452 8.21845 180.201 8.20345 179.949 8.18989C179.396 8.15848 178.843 8.1278 178.289 8.09639C177.275 8.04 176.216 7.89438 175.202 7.96647C172.923 8.12851 172.756 11.1473 172.617 12.8968C172.48 14.6072 172.338 17.1027 174.37 17.7308C175.34 18.0307 176.449 18.0835 177.453 18.2055C178.023 18.2748 178.593 18.3319 179.165 18.3811C179.025 20.16 178.883 21.9381 178.757 23.7177C178.689 24.6942 178.984 25.5729 179.902 26.0347C180.853 26.5151 182.053 26.7114 183.093 26.8856C184.108 27.0555 185.133 27.169 186.162 27.1961C187.247 27.2247 188.573 27.3189 189.44 26.5437C190.069 25.9812 190.318 25.191 190.541 24.4058C190.873 23.2308 191.2 22.0552 191.533 20.8802C191.594 20.6625 191.644 20.3663 191.763 20.1543C191.89 20.1486 192.018 20.1436 192.146 20.1471C192.341 20.1464 192.535 20.1521 192.73 20.1528C193.833 20.1593 195.114 20.2806 196.199 20.0422C197.188 19.8245 197.602 19.02 197.725 18.0892C197.881 16.9071 198.032 15.725 198.186 14.5422C198.438 12.5985 199.041 10.24 196.692 9.3884Z" fill="#FFC000"/>
<path id="path496" d="M198.981 45.0289C198.724 44.4128 198.455 43.8018 198.153 43.2065C197.848 42.6062 197.549 41.8716 196.939 41.5147C195.825 40.863 194.105 41.6882 193.064 42.1671C191.951 42.679 190.927 43.3571 189.911 44.0359C189.148 44.5463 188.364 45.0146 187.572 45.4664C186.713 45.8612 185.851 46.2495 184.984 46.625C183.716 47.1725 182.431 47.6836 181.144 48.1861C180.007 48.6301 178.488 48.9235 177.669 49.8929C176.712 51.025 177.213 52.6825 177.595 53.9524C177.973 55.2058 178.465 56.5871 179.218 57.6692C180.161 59.0241 181.518 58.8256 182.919 58.4216C184.182 58.0575 185.431 57.6421 186.66 57.1753C189.146 56.2323 191.563 55.103 193.87 53.7782C195.01 53.1236 196.123 52.4226 197.205 51.6767C198.234 50.9686 199.684 50.2205 199.949 48.8921C200.202 47.6179 199.46 46.1753 198.981 45.0289Z" fill="#9829C7"/>
<path id="path498" d="M191.881 109.414C191.213 108.676 190.294 108.029 189.385 107.489C188.835 106.969 188.271 106.462 187.691 105.951C186.622 105.006 185.388 104.023 184.109 105.28C183.6 105.782 183.261 106.489 182.892 107.105C182.44 107.865 181.987 108.625 181.533 109.386C180.687 110.804 179.84 112.222 178.993 113.641C175.549 119.416 172.139 125.213 168.764 131.034C168.35 131.746 167.798 132.511 167.769 133.381C167.739 134.299 168.178 135.022 168.854 135.551C170.032 136.473 171.363 137.195 172.708 137.799C174.046 138.4 175.848 139.371 177.272 138.557C178.472 137.871 179.222 136.141 179.954 134.982C183.384 129.55 186.61 123.973 189.622 118.271C190.362 116.871 191.088 115.462 191.802 114.047C192.574 112.516 193.18 110.85 191.881 109.414Z" fill="#FFC000"/>
<path id="path500" d="M169.728 109.61C169.72 109.436 169.716 109.113 169.718 109.077L169.724 108.973C169.849 108.54 170.007 108.241 170.28 108.027C170.558 107.811 170.719 107.762 171.061 107.694C170.883 107.729 171.353 107.66 171.32 107.662C171.4 107.657 171.787 107.674 171.719 107.663C172.214 107.745 172.664 108.028 172.957 108.46C173.153 108.749 173.481 108.852 173.788 108.821C173.802 109.047 173.801 109.279 173.795 109.492C173.791 109.653 173.776 109.811 173.769 109.971L173.767 110.026L173.752 110.085C173.714 110.239 173.688 110.434 173.644 110.62L173.629 110.644C173.542 110.787 173.463 110.932 173.372 111.071L173.182 111.288L173.02 111.435L172.921 111.503C172.812 111.561 172.707 111.622 172.599 111.681L172.206 111.82C172.06 111.86 171.912 111.89 171.764 111.921L171.715 111.93C171.623 111.939 171.53 111.945 171.438 111.95L171.432 111.947C171.318 111.885 171.202 111.828 171.092 111.761C171.07 111.748 171.005 111.714 170.939 111.677L170.762 111.524C170.666 111.436 170.576 111.346 170.487 111.252L170.401 111.155C170.269 110.997 170.287 111.027 170.458 111.245C170.257 111.11 170.089 110.688 169.982 110.476L169.925 110.36L169.9 110.304C169.874 110.214 169.85 110.117 169.844 110.094C169.807 109.971 169.776 109.845 169.749 109.719L169.728 109.61ZM177.343 105.161C176.18 103.526 174.173 102.556 172.153 102.73C169.083 102.996 166.479 105.315 165.983 108.261C165.772 109.083 165.7 109.939 165.794 110.75C165.917 111.818 166.224 112.776 166.887 113.634C167.451 114.364 168.194 114.891 169.038 115.247C169.505 115.444 169.98 115.577 170.454 115.655C171.686 116.046 173.012 116.026 174.287 115.457C175.318 114.996 176.109 114.22 176.676 113.285C177.292 112.575 177.775 111.741 178.073 110.82C178.663 108.997 178.472 106.745 177.343 105.161Z" fill="#FFC000"/>
<path id="path502" d="M193.062 135.679C193.031 135.744 192.997 135.808 192.959 135.871L192.957 135.876L192.877 135.985L192.772 136.069L192.76 136.075L192.739 136.083C192.661 136.104 192.554 136.128 192.53 136.134L192.473 136.151C192.378 136.151 192.265 136.136 192.221 136.135C192.116 136.133 192.013 136.119 191.909 136.118C191.658 136.117 192.061 136.137 192.05 136.143C191.959 136.195 191.562 136.052 191.46 136.028C191.283 135.985 191.106 135.936 190.933 135.879L190.804 135.828C190.883 135.867 190.933 135.91 190.769 135.828L190.707 135.794L190.673 135.788L190.698 135.789C190.562 135.716 190.428 135.639 190.292 135.566L190.241 135.54L190.173 135.472L190.067 135.352L190.029 135.285L190.006 135.206L189.998 135.154C189.995 135.059 189.991 134.967 189.991 134.872C189.993 134.672 190.005 134.471 190.021 134.272L190.031 134.146L190.058 133.965C190.104 133.716 190.173 133.479 190.242 133.236L190.29 133.117L190.227 133.242L190.292 133.115L190.296 133.105L190.333 133.032C190.376 132.952 190.422 132.875 190.471 132.8C190.517 132.729 190.702 132.545 190.517 132.723C190.59 132.653 190.695 132.552 190.722 132.525L190.801 132.446L190.909 132.374C191.048 132.284 191.194 132.212 191.339 132.133L191.481 132.085C191.52 132.073 191.679 132.019 191.813 131.983H191.891C192.004 131.982 192.115 131.974 192.228 131.977H192.348L192.398 131.986C192.489 132.304 192.68 132.585 192.962 132.781L192.971 132.795C192.989 132.88 193.007 132.963 193.023 133.05C193.037 133.128 193.047 133.209 193.063 133.287L193.064 133.295C193.092 133.543 193.124 133.788 193.147 134.037C193.166 134.274 193.181 134.512 193.181 134.75C193.182 134.839 193.181 134.928 193.178 135.017L193.171 135.174L193.151 135.319C193.135 135.391 193.119 135.463 193.098 135.534C193.094 135.547 193.08 135.614 193.062 135.679ZM196.292 138.092C197.306 136.797 197.906 135.12 197.799 133.609C197.654 131.558 196.397 129.587 194.558 128.668C193.748 127.869 192.632 127.365 191.45 127.323C189.108 127.238 186.905 128.844 185.786 130.817C184.425 133.215 184.449 136.198 186.182 138.386C186.964 139.373 188.129 140.041 189.369 140.247C190.683 140.466 192.254 140.488 193.539 140.096C193.997 139.956 194.432 139.739 194.841 139.463C195.409 139.139 195.902 138.682 196.292 138.092Z" fill="#FFC000"/>
<path id="path504" d="M190.707 135.794L190.805 135.828L190.698 135.789L190.707 135.794Z" fill="#294C92"/>
<path id="path506" d="M190.292 133.115L190.29 133.117L190.297 133.104L190.292 133.115Z" fill="#294C92"/>
</g>
</svg>
